<svg width="270" height="88" viewBox="0 0 270 88" fill="none" xmlns="http://www.w3.org/2000/svg">
<path d="M269.445 82.6398V87.019H267.256H265.504H263.971L260.906 85.9242L258.278 82.6398L255.87 80.2313L253.461 78.6986L250.615 75.8522L248.206 74.3195H246.893L243.389 72.1299L239.448 71.0351H236.383L231.347 72.1299L226.749 71.0351H223.026L218.428 74.3195H215.582L212.735 75.8522H208.794H203.977H200.693L196.532 74.3195L194.124 73.0057L189.088 72.1299H183.176L178.797 71.0351L169.601 70.3782L164.346 69.2834L159.748 66.8749L155.368 63.8095L151.865 60.7441L147.705 58.7735L143.326 56.365L139.823 53.7375L137.633 52.4237H132.597L129.75 52.8616H127.561L124.714 53.7375H120.116L114.642 54.1754L109.168 54.6133L105.008 55.7081L102.819 56.365L97.5638 58.7735L92.5277 57.8977H89.6813H87.9296L82.6747 55.7081L79.6093 54.1754L77.4197 52.8616L75.887 51.3289L74.7922 49.7962L72.6026 48.0446L70.851 46.5119H67.3476L57.7135 46.074H50.05L44.1382 47.3877L41.2917 44.9792L40.8538 41.6948L41.2917 40.1621L45.014 38.1915L45.8898 36.4398L45.014 34.9071L44.1382 34.0313L40.1969 32.0607L33.4093 30.747L30.5628 29.8711L24.213 28.5574L20.0529 27.2436L14.7979 26.8057L10.6377 26.1488L8.44811 27.2436L5.60167 29.2142H3.4121H1.87939L4.28793 25.492L6.91541 22.4266L8.44811 21.1128H10.6377H13.922H17.4254H21.5856L24.213 20.456L25.0889 17.6095L26.4026 11.2597L28.8111 6.8806L33.4093 0.96875H40.1969L44.1382 4.25311L46.7657 6.8806H55.9619H60.7789L66.6908 4.25311H72.1647L77.4197 6.8806L81.3609 11.2597H83.9884H92.0898H95.8121H99.0965H101.067L103.914 14.7631V19.1422L108.074 24.1782L110.92 26.5868H119.022L127.561 31.1849H135.662H141.574H151.865H158.215L162.594 24.1782L165.441 14.7631H169.601H173.761V19.1422L175.95 21.3318L178.797 24.1782H184.709H193.467L198.284 26.5868L203.101 31.1849H207.48L212.735 33.5934H219.085V40.1621L221.275 46.2929L224.997 52.2048L232.223 55.2702L244.484 52.2048L249.739 50.4531H256.746H262.22V55.2702V59.6493V64.9043L264.847 71.9109L267.256 76.2901L269.445 82.6398Z" fill="black" stroke="#622626"/>
</svg>
