<svg width="285" height="242" viewBox="0 0 285 242" fill="none" xmlns="http://www.w3.org/2000/svg">
<path d="M159.008 230.04L156.599 236.608V238.798L159.008 240.769L166.452 239.893L169.737 238.798L174.335 235.733L180.246 233.105L184.188 231.353L186.596 230.04L192.07 227.631L197.544 221.062L199.515 217.997V212.961L201.047 211.647H205.208L208.273 210.115L209.368 206.392V203.765L211.119 199.605V195.882L212.214 192.379L215.28 190.19V186.467L213.309 183.183L209.368 180.993H206.083V178.804L209.368 174.206L215.28 170.264V166.542L218.345 163.039H221.191L226.665 159.535L230.169 157.127L233.015 156.251V151.872V147.274L233.891 143.99L237.394 140.924L240.679 139.61L243.306 136.764L242.211 133.042L243.306 126.473L245.277 120.123V115.963L247.685 111.584V106.11L250.751 100.198L253.378 97.3516H257.757L260.823 98.8843H266.954L272.427 100.198L278.558 98.8843H284.47V96.2568L282.5 93.6293L280.529 90.5639L275.712 85.9658L270.238 81.8056H266.078L263.888 79.6161L257.757 76.1127L252.283 70.8578L254.254 65.1649L255.787 62.7563V57.9393V54.217L252.283 50.7137L249.437 48.3052V44.8018L247.685 39.5469V36.7004L244.182 33.635L239.584 31.8834L237.394 29.4748V26.4094L242.211 25.3146L245.277 22.2492L249.437 20.0597V16.3374L247.685 12.1772L245.277 7.79805L242.211 5.38952L237.394 1.88621H233.891L230.826 1.01038L226.009 1.88621L220.316 1.01038H216.155H212.214H207.835H200.828H196.668L194.479 5.38952V9.98763V14.8047L192.727 20.0597V24.4388L190.1 28.38L185.282 31.8834L182.874 34.5108V36.7004L185.282 38.4521L188.786 42.1744V45.8966L185.282 48.3052H180.903L171.269 56.8445L162.949 61.0047L158.351 65.1649L157.256 68.4492V74.58L154.847 77.6454H153.096H148.717L144.556 79.6161L141.929 81.8056L140.396 85.9658L139.301 90.5639L136.674 91.4398L134.484 88.8123L125.726 85.9658L120.033 87.2796L117.187 88.8123H114.997L113.246 85.9658V81.8056L110.18 79.6161L108.428 77.6454L104.487 76.1127H100.108L97.0427 77.6454L94.4152 81.8056L92.0067 84.2142L90.255 87.2796L87.6275 90.5639L85.8759 91.4398H81.2778L77.3365 90.5639L72.3005 88.8123L70.5488 87.2796L66.1697 85.9658L63.1043 88.8123L60.0389 90.5639L56.5356 91.4398L52.5943 93.8483H47.9962H43.836L39.019 90.5639L33.983 85.9658L29.6038 81.8056L25.4436 79.6161L24.5678 74.58L22.5972 69.3251L21.5024 65.1649H19.7507L13.8389 71.7336L10.1166 74.58L7.27017 79.6161L4.42373 85.9658L3.10998 91.4398L0.92041 97.3516L2.23415 104.358V110.051L4.42373 112.898L9.02183 118.153L10.1166 123.845V127.568L7.27017 130.852V133.48V139.172L10.1166 143.114L16.0285 147.274V154.281V157.127L19.7507 159.754L22.5972 157.127L26.5384 154.281H30.6986L33.983 159.754V168.732V180.774L36.6105 188V197.853L39.019 203.765L44.9308 208.144L57.8493 210.771L70.5488 208.144H74.4901H79.745V217.997L81.9346 223.033H88.0654H95.0721H101.422H110.837L112.808 216.026L115.435 212.961H118.719L123.318 217.997H128.135H130.981V223.033H137.331L139.739 219.968H143.024H146.746L150.906 223.033H154.628L156.599 225.442L159.008 230.04Z" fill="black" stroke="#622626"/>
</svg>
