<svg width="137" height="178" viewBox="0 0 137 178" fill="none" xmlns="http://www.w3.org/2000/svg">
<path d="M59.3302 84.5583L63.4904 88.4995L66.9937 89.8133L71.3728 88.4995V84.5583L68.7453 80.1792L63.4904 76.019L61.0818 69.8882V65.29L57.3596 58.2834V52.3716L58.6733 50.182H63.4904H69.1833L73.5624 53.6853L77.2847 55.437L81.4449 58.2834H85.1671V55.437L83.6344 52.3716L81.4449 47.1166L77.2847 44.4891H73.5624H71.3728L66.9937 41.2047L68.7453 37.9204L71.3728 33.1033L77.2847 29.381L80.1311 26.5346V19.7469V15.3678H73.5624L68.7453 17.7763L65.6799 21.0607L61.0818 22.8123L58.6733 30.2569V33.1033L57.3596 37.9204H53.4183V34.1981L52.3235 29.381L54.7321 26.5346L57.3596 24.345L59.3302 19.7469V15.3678L57.3596 11.4265V5.51469L54.7321 0.697632L51.4477 2.44929L46.4117 6.17157L44.2221 11.4265L41.8136 17.7763V22.8123L39.624 26.5346L41.8136 30.2569L44.2221 34.1981V39.4531V44.4891L46.4117 48.4303L49.6961 51.2768L51.4477 55.437L49.6961 58.2834L48.3823 60.254V65.29L51.4477 69.8882L53.4183 74.7052L56.4837 80.1792L59.3302 84.5583Z" fill="black" stroke="#622626"/>
<path d="M61.9572 142.144H60.2056L58.6729 145.428L60.2056 153.311L65.6795 158.785L72.0293 161.193H76.6274H85.8236H93.925H103.34H109.909L112.536 165.572L118.01 169.076L121.076 172.579L125.674 173.674L130.272 174.55L136.403 172.579V165.572L134.87 161.193L130.272 159.442L128.739 156.157L126.988 150.245L123.046 146.961H118.01H112.536L107.281 145.428L103.34 142.144L96.9904 143.896L85.8236 145.428H76.6274H72.0293L66.9932 142.144H61.9572Z" fill="black" stroke="#622626"/>
<path d="M17.7277 172.798L23.6395 176.739H26.9239L29.1135 172.798L30.6462 169.733L32.8357 167.762L38.0907 166.01L40.9371 163.383V160.318L38.0907 156.157L34.5874 150.902L29.1135 148.056H23.6395L21.012 148.932H16.4139L8.31251 148.056H3.27649L1.08691 150.902V156.157L3.27649 163.383L8.31251 167.762L13.1296 169.733L17.7277 172.798Z" fill="black" stroke="#622626"/>
</svg>
