<svg width="295" height="74" viewBox="0 0 295 74" fill="none" xmlns="http://www.w3.org/2000/svg">
<path d="M198.531 69.7156H194.152L184.956 73V64.8986L188.897 54.8265V49.3526L194.152 41.908L202.691 38.1858H210.793L219.332 35.9962L225.244 27.4569L230.718 20.8881H238.162L242.541 19.3554L251.519 20.8881H265.532H275.166L279.107 15.6332L283.924 11.9109L290.274 15.6332L293.996 20.8881L286.552 27.4569L279.107 33.8066L275.166 38.1858H265.532H254.803H244.731H238.162L230.718 49.3526L225.244 54.8265L221.084 61.1763L214.515 64.8986H206.632H202.691L198.531 69.7156Z" fill="black" stroke="#622626"/>
<path d="M86.2056 16.728V26.3621V28.3327L89.271 29.6465H95.6207L98.9051 28.3327L101.97 27.2379L105.693 26.3621L107.882 30.9602L111.824 32.7119H117.954L123.866 29.6465L126.494 28.3327H130.873H133.938V29.6465L139.631 30.9602L144.229 29.6465V27.2379H146.419H149.703L152.988 26.3621H157.367H163.498L167.22 22.6398L170.504 19.1365L172.256 17.6038L174.445 15.1953L176.416 11.692V6.21803L174.445 2.71471L170.504 1.18201L165.906 4.68532L163.498 6.21803L162.403 10.5972L160.213 11.692L157.367 13.8815L155.615 17.6038L152.988 20.6692H149.703H147.514L144.229 17.6038L142.04 13.8815L140.726 11.692L135.909 13.0057L130.873 13.8815L128.683 17.6038L126.494 16.728H122.99L119.487 13.8815L114.013 13.0057L107.882 11.692H101.97L98.9051 13.8815L95.6207 15.1953L92.1174 13.8815L86.2056 16.728Z" fill="black" stroke="#622626"/>
<path d="M93.869 65.9934L98.6861 70.5915H105.474H111.386L116.641 65.9934L111.386 57.8919L107.225 53.0749L105.474 47.382L102.408 45.1924H98.6861H96.0586L93.869 39.4995H87.5192H77.8851L73.068 42.127H65.6235L61.0254 45.1924V49.3526L65.6235 53.5128H77.8851L84.2349 57.8919L87.5192 62.0521L89.4898 65.9934H93.869Z" fill="black" stroke="#622626"/>
<path d="M35.6269 31.1791L32.1236 32.7118L30.5909 33.3687H26.2118L20.081 34.6824H12.4174H6.94351L3.00228 32.7118L0.59375 30.3033V25.7052L3.87811 22.2018L5.84873 18.4796L9.35204 16.29L13.0743 14.1004L16.3587 14.7573L22.4895 14.1004L27.3065 16.29L29.2772 20.2312L32.1236 22.2018L34.7511 21.545L37.3786 19.1364V16.29L34.7511 14.7573L32.1236 11.4729L30.5909 7.96961L32.1236 5.12317H36.5028H38.2544L41.1009 5.999L43.9473 9.0644L45.699 11.4729L47.8885 9.50232L48.7644 7.09379L50.0781 5.12317H52.9246L54.8952 7.09379L56.8658 9.0644L59.9312 9.50232L62.7776 10.3781L64.9672 13.2246L67.3757 17.3848L68.0326 20.2312V23.7345L67.3757 25.7052L65.6241 27.2379H59.9312L56.4279 30.3033H53.5814L50.735 28.7706L47.8885 25.7052H44.8231L42.4146 27.2379L39.1302 28.7706L35.6269 31.1791Z" fill="black" stroke="#622626"/>
</svg>
