<svg width="274" height="248" viewBox="0 0 274 248" fill="none" xmlns="http://www.w3.org/2000/svg">
<path d="M272.698 247.032H269.633L266.129 247.47L262.845 247.032L259.123 244.843L256.933 241.777L255.4 239.588L254.087 236.084L250.802 234.333L247.518 230.61L244.453 226.012L241.606 223.823L240.292 222.728V218.787L235.913 217.473L231.972 216.159L226.936 218.787L223.214 219.882L220.586 217.473H214.674H210.952L208.325 216.159L205.697 215.283L202.413 214.189V218.787L205.697 221.633V226.012L204.602 227.326H201.537L198.472 226.012L197.377 222.728V219.882H194.092L191.684 222.728L188.181 223.823H184.239H180.517L176.795 226.012H172.854L170.007 223.823V219.882L174.824 217.473L179.203 215.283L180.517 211.78V208.934L184.239 206.087L185.115 204.336L186.648 200.175L188.181 198.643L190.151 196.672H194.092H199.347L202.413 198.643H205.697V194.701L204.164 190.76L201.537 189.884L198.472 188.79H195.625V185.286L197.377 183.097L198.472 180.907L201.537 178.499L204.602 175.652V171.93L202.413 171.054L199.347 167.989L197.377 166.018L194.092 164.923V162.953L191.684 160.106L190.151 155.946L188.181 153.975V149.815V146.75L184.239 144.122L180.517 142.59L174.824 141.495L172.854 139.305L167.818 137.116L165.628 134.05L161.468 130.328L157.089 127.263L152.709 125.73L147.236 124.416L143.294 121.351L135.85 119.599L133.222 118.066H127.748L122.712 116.315H117.238L108.918 115.22H106.072L101.692 113.687L97.0943 111.06L93.8099 107.337L91.6204 106.462L87.2412 105.586H82.6431L81.3294 102.739L80.0156 101.426L77.6071 97.4844L75.1986 94.4189H71.4763L67.5351 97.4844L64.9076 102.739L63.8128 105.586H61.1853L57.9009 107.337L53.3028 109.089L51.3322 110.184L47.8289 109.089L46.7341 105.586L45.2014 102.739L44.1066 99.6739L42.7929 96.6085L44.1066 92.8862L45.2014 90.2588V88.2881L44.1066 84.5659H42.7929L41.6981 80.8436L39.9464 79.0919L37.7569 77.7782H35.3483H30.7502H28.3417L26.3711 76.6834L25.2763 74.9317L26.3711 72.7422L28.3417 69.0199L30.7502 65.2976L31.845 61.3564H33.5967H36.4431L38.8517 64.4218L42.7929 67.0493L45.2014 69.0199H49.7995H53.3028L54.3976 67.0493L55.2735 66.3924L57.0251 64.4218L57.9009 61.3564L59.2147 60.6995L62.2801 59.3858L64.9076 60.6995H66.2213H68.6299H71.4763H73.4469L74.5417 57.8531V57.1962L73.4469 55.4445L71.4763 54.7877H66.2213L60.0905 55.4445L55.2735 54.7877L52.208 56.3204H47.8289H42.7929H39.9464L38.8517 54.7877H35.3483L31.845 53.036L28.3417 52.1602L27.2469 49.9706L25.2763 48.2189L23.5246 46.0294V44.7156L21.773 41.2123L19.1455 37.2711L16.737 33.5488L14.5474 32.0161L11.0441 31.7971H6.44597H2.94265L1.62891 30.0455L2.94265 28.7317L5.13222 26.5422L8.19763 24.5716L9.51137 22.8199L8.19763 21.5061V16.2512L9.51137 13.1858L11.0441 10.1204H13.6716L16.737 8.80662L19.1455 10.1204H23.5246L25.2763 8.80662V7.05496L29.8744 3.7706L32.5019 2.67582L36.4431 1.58103H37.7569H41.6981L46.7341 0.7052L51.3322 1.58103L53.3028 3.7706L55.2735 7.05496L57.0251 10.1204L59.2147 12.091H62.2801H66.2213H71.4763H75.1986L77.6071 10.1204H81.3294H85.7085L87.2412 12.091V14.2806L83.9569 16.2512L81.3294 19.3166L82.6431 21.5061L85.7085 22.8199L87.2412 24.5716L90.7445 26.5422V30.0455V33.5488L87.2412 37.2711L85.7085 39.8986V44.7156V48.2189L87.2412 49.9706V52.1602V57.8531L88.9929 60.6995L90.7445 66.3924L93.8099 69.0199L96.4374 64.4218V60.6995H100.16V63.327L103.444 66.3924V72.3043L106.072 74.9317V80.8436L110.889 84.5659L114.611 88.2881H120.304H124.245L126.435 84.5659V80.8436H129.5L133.222 79.0919L132.565 74.9317L135.85 69.0199L139.572 66.3924L143.294 63.327L145.046 60.6995L149.644 57.8531H154.023L158.402 54.7877L160.373 52.1602L162.563 47.3431L165.628 44.7156H169.35L171.54 42.5261L174.824 37.2711L177.014 33.5488H180.517H185.334H190.151L194.092 37.2711L196.063 42.5261H203.508H208.325L214.236 47.3431L217.521 49.9706H221.024L225.841 52.1602H230.22L235.037 54.7877L239.854 57.8531H243.358H249.489L251.897 60.6995H256.276V57.8531H259.342H263.064L265.254 64.4218H269.633H272.698V69.0199V80.8436V95.7327V107.337V120.913L269.633 145.874L272.698 157.917L269.633 169.083L265.254 177.842V184.191V188.79L269.633 193.169V200.175V206.087L272.698 211.78L269.633 219.882V231.705V241.777H272.698V247.032Z" fill="black" stroke="#622626"/>
</svg>
