<svg width="190" height="214" viewBox="0 0 190 214" fill="none" xmlns="http://www.w3.org/2000/svg">
<path d="M56.2549 201.145V205.962L52.9705 208.589H46.6208L43.5554 212.75H38.7383L33.4833 210.122L30.4179 205.962L24.5061 201.145L22.5355 194.795L26.6956 192.825L30.4179 186.913V181.001V172.68L33.4833 162.389L26.6956 156.259L19.689 153.631H11.3686L8.74114 145.092L6.98948 140.275L3.26721 135.458L1.07764 130.86H3.26721L8.74114 127.575L15.9667 122.32L19.689 116.846L22.5355 113.343L24.5061 111.81V103.271V95.3885V87.725L26.6956 83.1269L30.4179 78.3099L35.6729 75.6824V71.5222L38.7383 67.1431V61.8881L33.4833 58.8227L30.4179 55.9762L33.4833 50.2833L38.7383 46.1232V39.5544L41.5847 33.4236L48.3724 29.0445L58.4445 23.1326L64.3563 20.9431L67.8596 12.6227H73.1146H80.1212L83.8435 15.907L88.6606 17.8777L92.1639 15.907L102.893 12.6227L110.775 20.9431L116.249 23.1326L128.292 25.7601L134.642 23.1326L143.181 17.8777H154.348L162.887 12.6227L168.142 9.33832L178.652 3.64543L185.44 1.01794L189.381 3.64543V9.33832V12.6227L185.44 17.8777L183.031 25.7601H176.462L173.835 33.4236V37.5838L170.551 46.1232H162.887H156.537H145.152L138.802 48.0938H134.642L130.481 46.1232L124.57 41.744H116.249H105.52H95.0103L92.1639 39.5544H80.1212H73.1146L65.4511 37.5838L61.0719 41.744H56.2549L52.9705 46.1232L50.9999 53.7867V64.9535V75.6824L58.4445 78.3099H64.3563V83.1269V89.9146L67.8596 91.6663L73.1146 95.3885L77.9317 91.6663V83.1269L80.1212 78.3099H81.6539H86.9089H95.0103H102.893L110.775 75.6824H116.249L119.753 71.5222L122.38 67.1431H128.292H132.452L138.802 71.5222H143.181V78.3099L138.802 83.1269H132.452L128.292 78.3099L122.38 83.1269L116.249 85.3165V91.6663L108.148 95.3885L98.0757 103.271L92.1639 107.431H86.9089V111.81L92.1639 113.343L98.0757 122.32V127.575L102.893 130.86L105.52 135.458H110.775V141.807H105.52V145.092L108.148 148.814L110.775 153.631V156.259L113.403 159.324L116.249 162.389V167.863H122.38L124.57 172.68L122.38 176.184L116.249 181.001H108.148L102.893 186.913L98.0757 189.978H88.6606L83.8435 186.913L81.6539 177.498L83.8435 172.68V167.863L80.1212 165.236L75.3042 159.324L73.1146 153.631V148.814V141.807L70.7061 135.458V130.86V124.51H65.4511H61.0719L56.2549 130.86L52.9705 135.458L50.9999 141.807L52.9705 148.814L58.4445 153.631V159.324L56.2549 165.236L52.9705 167.863V172.68L56.2549 176.184V183.628L52.9705 186.913V192.825V197.423L56.2549 201.145Z" fill="black" stroke="#622626"/>
</svg>
