<svg width="305" height="338" viewBox="0 0 305 338" fill="none" xmlns="http://www.w3.org/2000/svg">
<path d="M286.301 325.057V332.72L287.396 336.005L290.024 332.72L292.87 331.407L295.717 329.217L296.592 323.086L298.125 319.364L296.592 317.174L295.717 313.233V311.263L298.125 309.511L299.658 304.475V299.877V295.279L298.125 291.775V287.177V283.893L299.658 280.39V276.01L298.125 274.916L295.717 270.755V267.909L296.592 266.376L302.504 265.719L303.599 261.778L302.504 256.523L299.658 253.896L295.717 250.83L291.556 245.575H290.024L287.396 238.569L284.112 235.284H281.046H278.2L275.791 237.036H271.193H267.909H266.814V233.314L267.909 229.372L264.844 224.774L261.34 219.957L257.837 216.235L256.085 213.827L259.589 211.637V206.382V203.317L256.085 200.032L252.582 196.091L247.765 193.901L240.977 191.712H234.19L230.905 189.084L224.993 183.391V179.669L227.402 177.699L232.219 179.669L234.19 175.947L232.219 172.444V168.721L234.19 165.656L238.131 163.247L239.226 157.336L238.131 154.051L230.905 150.767H227.402L223.68 148.358V152.081L221.052 155.584L217.111 157.336H213.827L212.513 155.584L213.827 154.051L217.111 150.767V148.358L213.827 146.169L208.353 144.198L204.63 142.665L197.624 139.6L194.777 137.191L193.245 135.44V131.718L191.274 126.463L189.303 122.959L185.362 120.113H181.421L176.604 117.047L174.195 114.858L171.568 111.792L170.035 106.756L167.845 102.158L164.342 99.7498H162.591L159.525 101.063L161.277 104.567L162.591 106.756V111.792L161.277 112.887L159.525 111.792L157.992 108.727L155.146 106.756L151.424 103.91L145.95 98.436L144.636 96.6844L141.133 91.6483L140.038 87.0502L136.754 85.7365L133.907 83.7659L129.309 77.1972L127.119 71.9422L123.835 68.2199L118.799 64.9355L115.296 61.8701L105.224 56.6152L97.3412 50.9223L95.8085 48.2948L90.7725 45.8863L87.9261 43.0398L89.6777 39.7554V37.128L87.9261 32.9678H84.6417L82.2332 31.873L79.1678 29.9024L75.0076 26.618L72.599 22.2389L70.8474 17.4218L66.9062 13.4806L59.6806 11.072H53.7687L47.2 9.97725L39.5365 11.072L34.7194 9.97725H27.7128H23.9905L20.4872 5.5981L16.546 3.18957H12.8237L6.91185 1H4.28436L1 3.18957V6.69289V9.97725L4.28436 14.3564L5.5981 19.6114L8.22559 25.0853L9.97725 30.5592L14.3564 32.9678L18.5166 37.128L20.4872 41.945L25.0853 44.5725L29.9024 48.2948L32.3109 50.9223L38.0038 57.9289H41.945H45.0104L47.2 61.8701H49.6085L53.7687 64.9355V68.2199L59.6806 74.5697V79.6057V82.2332L61.8701 83.7659L66.0303 87.0502L68.8768 91.6483L70.8474 98.436L75.0076 101.063L80.0436 103.253H85.7365L89.6777 104.567L95.8085 108.727L97.3412 112.887L100.407 117.047V124.054V131.718L103.253 137.191L105.224 144.198L107.632 150.767L110.917 155.584L115.734 159.087L120.113 163.247L124.054 165.656L126.9 168.721L131.061 172.444L136.754 179.669L140.038 183.391L141.133 187.114L145.95 193.901L150.548 198.718L153.394 204.63L155.146 209.009V216.235L157.773 226.964L159.525 233.314L162.153 238.569L167.845 243.824L174.633 250.83L178.355 253.896L181.421 257.837L183.61 261.778L188.427 265.719L192.807 270.755L194.558 274.916L196.529 278.419L200.251 283.893L206.163 288.272L209.228 291.775L213.17 295.279L217.987 298.782L224.555 304.475L231.124 309.511L234.409 313.233L239.882 317.174L246.232 323.086L249.298 327.465L256.304 332.72H260.464L263.749 331.407V327.465L264.844 323.086H267.909L271.85 325.057L274.04 331.407H277.981L280.827 329.217V325.057H286.301Z" fill="black" stroke="#622626"/>
<path d="M114.858 210.98V217.549H108.946H103.691L100.625 214.483L96.6841 209.009V202.222V197.624V193.025L100.625 187.771H105.442L108.946 189.96L110.916 197.624L114.858 203.754V210.98Z" fill="black" stroke="#622626"/>
<path d="M77.4164 145.074L71.2856 149.672L67.7823 147.482L64.4979 142.227H60.7757L59.2429 136.316L57.0534 131.499L50.7036 125.368L54.6448 123.616L57.0534 118.142L64.4979 116.172L66.2496 120.113L73.2562 125.368L77.4164 133.031L82.0145 136.316V142.227L77.4164 145.074Z" fill="black" stroke="#622626"/>
<path d="M34.5006 86.8312L40.8504 91.8672L34.5006 94.7136L29.6836 91.8672H19.1736L17.6409 86.8312L10.6343 82.0141V78.0729L15.4513 73.6937H22.6769L29.6836 82.0141L34.5006 86.8312Z" fill="#1C0303" stroke="#622626"/>
</svg>
